<svg xmlns="http://www.w3.org/2000/svg" viewBox="0 0 1920 1080">
  <path fill="#011628" d="M-8.3-379.6h1930.7v1930.7H-8.3z"/>
  <path fill="#031b26" d="M-8.4 77.9S136.7-218.7 648-218.7 1925.6 77.9 1925.6 77.9v205.2H-8.4Z"/>
  <path fill="#031e30" d="M1922.4 129.3S1618 47.2 1296.1 47.2s-570.7 49-640.7 82.1-236.7 112-476.5 112c0 0-187.2 3.1-187.2-63.1v527.3h1930.5Z"/>
  <path fill="#03223a" d="M-8.3 341.6s304.4-82 626.3-82 570.7 49 640.7 82 236.7 112.1 476.5 112.1c0 0 187.2 3.1 187.2-63.2v527.4H-8.1Z"/>
  <path fill="#0091d4" d="M9.8 531.7c-4.2 5.6-9 26.4-18.2 46.6l.5 745.8h1930.7V636.3l-13.1-1.4 12.8-24.8-23.4 10.7a218.1 218.1 0 0 0-13.7-36.2l7.6 33.8-23.3-14 5.4 20.6-36.2-4c7.6-12.5 16.6-26.6 16.6-26.6a239.6 239.6 0 0 0-20.7 26.2l-3.1-.3 8-34.9c-2.8 3.8-8.5 20.6-12.9 34.3l-7.9-.8-27.1-16.8v-11.5l-43.2 18.1c-6.4-11.6-22.7-41.3-28.1-47.4 0 0 14.1 28.5 23.6 49.3l-16.3 6.8 8.1-15.2-12.6 7.8-44.1-20.1V601l-17.4-19.9 3.8 13.5-32 6.8 6.8-26.7-7.4 5.2 2.6-22.4a217 217 0 0 0-4.7 23.9l-11.2 7.8-3.8-4.8c-5-12.2-10.2-24-13.1-27.2l5 17.1-14-17.5 13.4 30.6-19-6.9 6.5 19.3-43.3 4.9 6.2-36.5c-2.7 4.4-7.4 22.4-11 37.1l-7.9.9-27.8-10.7-.5-11.5-41.8 27.7c-7-10.2-24.7-36.1-30.4-41 0 0 15.5 25.3 26 43.9l-15.8 10.5 7.3-17-12.1 10.6-44.8-10.3.4 11.2-38.7-14.5 14.7 23.8-13 4.5-8.3-2.4c3.5-16.2-2.9-39.4-2.9-39.4-2.3 5-2.7 32.7-4.5 39.7l-34.2-36.8 13 24-12.2 10.9-17.8-2.4c-7-6.5-7.3-16.2-10.6-17.8a21 21 0 0 0 5.1 16.7l-6.8-1.3 7.1 18.2-35.8 10.1c6.3-15.3 13.9-32.8 13.9-32.8-3.4 4.5-12.6 23-17.9 33.9l-3 .9 4.7-37.6c-2.5 4.9-6.5 23.6-9.5 38.9l-7.9 2.2-13.6-2.9-4.2-15-7.2 9c-5.1-14.1-12-33-14.2-37.2l9.6 29.2-1.5 1.3a357.5 357.5 0 0 0-12.4-23.2l11.4 24-10.5 9-1-.2 4.4-22.5-23.2 17.6-2.4-9.7-32.7 19.6-50-26.1 2.5 10.1-16.6 12.9-40.1 1.8-.2-17.6-18.3 12.4-10.8-5.9 2.1-24.2-24.6 43 2.6 4-9.6-.3 3.1-24.4-21.2 23-2.7-9.6-26.3 21.1-10.6-5.9 9.2 12.6-51.1-18.1 2.7 10-15.1 16.7-38 9.9-1-18.3-10.4 11.1.5-29.9-8.1 34.9-21.8-12.9s9.2 15.3 16 27.2l-22.6 2.9-1.1-12.6-5.9 21.8-3.1-9.5-23.2 29.4-5.2-1.6 3.1-10.5-11.2 17.5-7.1-33.2c-.5 5.5-4.6 8.4-2.7 25.7l-4.9 6.7-15.9-1.8 4.1-7.4-22.6 10.8v-6.6l-26.3 8.7-2.7 4.1-9.6-5.3c5.9-11.6 14.5-27.4 14.5-27.4-3.3 3.2-13.2 19.6-17.1 26l-.9-.5 6.2-31.7c-2.1 3.4-6.4 18.1-9.5 29.9l-21.2-11.6v6.8l-15.7 18.1-24.2 4.6 7.6-12.6-20.2 12.1 3.8-12.1-12.3-.7a120 120 0 0 0 2-25.9l-6.7 25.6-29.7 2.1-1.9-1.1-8.1-13.2c14.5-17.3 19.4-25.6 19.4-25.6-6.2 3.7-13.2 12-22.1 21.1l-1-1.6 26.2-53.9c-4.8 4.8-18.8 28.9-29.7 48.3l-22.2-36.1-3.9 12.5-26.4 3.4-6.4-3.5c1.4-17.3 2.9-38.5 2-44.3l-5.9 42.2-34.7-18.7 11.2-19.3-22.6 2.4 17.5-32.5c-4 3.1-14 18-22.9 31.8l-7.9-13.6 18-25-44.3 36.6-.3-.2c.3-7.9 1.2-38.4.5-44.3 0 0-1.3 24.8-2.6 43.2l-8.2-4.4.3 6-16-21.9 7.3-13.4-20.5 15.5 3.4-12.3-42.4 5.8-7.9-13.2 1.9 19.7-11.2-13.5c14.3-19.4 34.8-45.5 34.8-45.5-6.3 4.7-29 31.3-37.9 41.8l-29.7-36-3.5 12.7-27.4 8.5-6.8-2a313 313 0 0 0 .2-42.5l-4.4 41.3-2.6-.8a324.5 324.5 0 0 0-8.8-36.5s3 18.9 5.3 35.5l-30.9-9.1 10.9-20.6-18.7 5.4 20.2-32.3-17.1 17.7 9-18.4a193.2 193.2 0 0 0-18.9 28.6l-4.7 4.8-14.5-18.6-1.1 30.5-15.6-4.6 15-22.3-25.9 15.3 7-14.5-40.1 20 2.9-12.3-44.5 16.9-4.6-5.2 10.2-9.4-21.9 14.4-1-.7ZM-19.1 555"/>
  <path fill="#003a71" d="m399.5 849.1-90.1-10.3 12.5-109.3s5-43.8 50-38.6 40.1 48.9 40.1 48.9Zm1523.3 18.7h-59.7V752.9s0-46.1 47.3-46.1a57.3 57.3 0 0 1 12.2 1.2Zm-463.7 11.5-1.7-18.9-34.7 3-2.7-30-18.9 1.7 2.7 30-34.8 3.1 1.7 18.9 34.7-3.1 7.4 84.1 18.9-1.7-7.4-84 34.8-3.1z"/>
  <path fill="#0d1856" d="m1618.8 910.9-63.9 11.3-13.8-77.5s-5.6-31.1 26.4-36.8 37.5 25.4 37.5 25.4Zm-1396.1-202-3.6-28.9-53 6.6-5.7-45.8-29 3.6 5.8 45.8-53.1 6.6 3.6 28.9 53.1-6.6 16 128.4 28.9-3.6-16-128.4 53-6.6zm1542.3 43-2.4-18.9-34.6 4.3-3.7-29.9-18.8 2.4 3.7 29.9-34.6 4.3 2.3 18.9 34.6-4.3 10.5 83.7 18.8-2.4-10.4-83.7 34.6-4.3zM153.2 853.2l-22.6-2.6 2.2-19.6-12.4-1.4-2.2 19.6-22.7-2.6-1.4 12.3 22.7 2.6-6.3 54.9 12.4 1.4 6.3-54.9 22.6 2.6 1.4-12.3z"/>
  <path fill="#005d9d" d="m21.4 846.2 7.6-33.8c-3.2 4.5-8.9 21.1-13.7 36.2L-8.1 838l12.8 24.7-13.1 1.4V1552h1930.7l.5-745.9-33.8-35.4 31.9 53.5-21.9-14.4 10.2 9.4-4.6 5.2-44.5-16.9 2.9 12.4-40.1-20 7 14.4-25.9-15.2 15 22.2-15.6 4.6-1.1-30.5-14.5 18.7-4.7-4.9a199 199 0 0 0-18.9-28.6l9 18.4-17.1-17.7 20.2 32.3-18.7-5.4 10.9 20.6-30.9 9.1c2.2-16.6 5.3-35.4 5.3-35.4-2.2 4.7-6.5 24.7-8.8 36.4l-2.6.8-4.4-41.3c-1.2 5.3-.5 25.8.2 42.5l-6.8 2-27.4-8.4-3.5-12.7-24.7 29.8c-10.6-20.6-24.1-46.2-29-51.8l25.1 56.5-15.4 18.7 1.9-19.8-7.9 13.3-42.4-5.9 3.4 12.3-20.5-15.5 7.3 13.4-18-8.1 12.3 23.5-10.3 6.6.3-6.1-8.2 4.4c-1.3-18.4-2.6-43.2-2.6-43.2-.7 5.9.2 36.4.5 44.4h-.3l-9.8-51.3c.1 5.8 4 30.6 7 49.1l-41.5-34.4 18 25-7.9 13.6c-8.9-13.8-18.9-28.7-22.9-31.8l17.5 32.5-11-1.2c-8-6.3-16.3-12.5-19.7-13.9l14.5 13.4-6.4-.7 11.2 19.4-34.7 18.7-5.9-42.2a356 356 0 0 0 2 44.3l-6.4 3.4-26.4-3.3-3.9-12.6-26.7 43.4c-8.9-9.2-31.6-32.4-37.8-36 0 0 20.6 23.1 35.1 40.5l-8.1 13.1-1.9 1.1-10.6-3.2-19.1 1.1-6.7-25.6c-.7 4 .3 13.9 2 25.9l-12.3.7 3.8 12.1-20.2-12 7.6 12.5-24.2-4.6-15.7-18v-6.9l-25.4 13.9c-3.9-6.4-13.8-22.8-17.1-26 0 0 8.6 15.8 14.5 27.5l-9.6 5.2 4.6-9.6-7.3 5.6-26.3-8.8v6.8l-10.5-10.6 2.4 7.7-14.5-8 4.1 7.4-6.8.8 4.1-15.3c-.9 1.9-3.4 9.4-5.2 15.4l-8 .9-12.7-14.1-2 14.9-13.3-5.3-23.2-29.4-3.1 9.5-18.4-30.1 1.2 21.1-12.4-3.2 11.5-21-17.3 6.7-8.1-34.9.5 29.9-10.4-11.1-1 18.3-38-9.8-15.1-16.8 2.7-10-51.1 18.2 9.2-12.6-10.6 5.8-26.3-21.1-2.7 9.7-21.2-23 3.1 24.3-9.6.3 2.6-4-7.3-.3-17.3-42.7 2.1 24.2-10.8 6-18.3-12.5-.2 17.6-40.1-1.8-16.6-12.9 2.5-10-50 26h-1.7l-31-19.6-2.4 9.7-8.7-16.3v11.5L719 857.7l4.4 22.5-1 .2-13-11-4.6 7.9-7.2-9-4.2 15-13.6 3-15.7-4.5a378.2 378.2 0 0 0-17.9-33.8s7.6 17.4 13.8 32.7l-35.7-10.1 7.1-18.2-6.8 1.3 12.2-13.4c-3.3 1.6-10.7 8-17.7 14.5l-11.7 2.4 10.4-30.5c-3.4 3.2-10.5 17.4-16.5 30.5L589 846.3l13.1-24-36.2 35.1a529.9 529.9 0 0 0-5.3-43.7l2.8 45.9-13.1-3.7 1.9 5.3-13-4.5 14.7-23.7-25 11 4.5-12.6-18.2 16 .4-11.1-44.8 10.2-12.1-10.6 7.3 17-15.8-10.5c10.5-18.6 26-43.8 26-43.8-5.7 4.8-23.4 30.7-30.4 41l-1.5-1.1 12.5-52.3c-3.9 5.4-11.9 29.4-18 48.7L404 811.8l-.5 11.6-27.8 10.6-7.9-.9a236.2 236.2 0 0 0-11-37.1l6.2 36.6-3.1-.4a307 307 0 0 0-19.2-30.7s8.3 16 15.1 30.2l-36.1-4.1 6.5-19.3-19 6.9 13.4-30.6-14 17.5 5-17.1a149 149 0 0 0-13.1 27.3l-3.8 4.7-11.2-7.8a228 228 0 0 0-4.7-23.9l2.6 22.4-7.4-5.2 6.8 26.8-18.3-2.1 10.6-21.3-24.3 16.5 3.8-13.5-17.4 19.9v-11.1l-48.6 23.7-16.3-3c9.5-20.8 23.6-49.2 23.6-49.2-5.4 6-21.7 35.7-28.1 47.3l-1.6-.6 9.7-54.7c-3.5 6.3-10.3 31.8-15.3 52.3l-36-15.1v11.5l-27.1 16.8-7.9.9a218.7 218.7 0 0 0-12.9-34.4l8 34.9-3.1.3a239.6 239.6 0 0 0-20.7-26.2s9 14.1 16.6 26.7l-36.2 3.9 5.4-20.6Zm1912.1-63.3"/>
</svg>
