<svg xmlns="http://www.w3.org/2000/svg" viewBox="0 0 1000 1000"><polygon points="746.03 596.54 743.65 653.19 733.5 653.43 735.55 593.18 746.03 596.54" style="fill:#0e0943"/><polygon points="798.2 515.71 782.7 496.28 750.95 503.6 752.03 510 760.14 512.25 787.22 511.79 798.2 515.71" style="fill:#050b3e"/><path d="M817.35,542l15.6-1a64.83,64.83,0,0,0-11.47-37C809,486.11,786.17,484.21,779,484.83,779,484.83,815.05,509,817.35,542Z" style="fill:#141366"/><path d="M744.3,593.34l15.46-1.64,24.7-13.81L808,559.06l1.39-11.53L808,534.13s-7.23-20.84-25.35-20-36.09,27.07-36.09,27.07Z" style="fill:#004999"/><polygon points="783.5 486.1 783.5 474.43 771.18 473.87 767.61 473.87 767.65 484.35 783.5 486.1" style="fill:#0056a2"/><polygon points="767.35 473.72 767.61 474.12 783.5 474.43 783.5 486.1 794.94 486.94 794.41 476.76 785.28 473.51 767.35 473.72" style="fill:#050b3e"/><polygon points="804.8 476.76 794.41 476.76 785.28 473.51 795.88 473.51 804.8 476.76" style="fill:#17193d"/><polygon points="804.8 476.76 804.8 463.92 798.82 462.59 796.3 466.16 795.88 473.51 804.8 476.76" style="fill:#12053e"/><polygon points="784.86 461.78 784.86 450.1 789.8 452.73 790.14 462.09 784.86 461.78" style="fill:#130b5a"/><polygon points="784.86 450.1 771.01 450.1 769.96 460.91 784.86 461.78 784.86 450.1" style="fill:#006ca9"/><polygon points="795.88 473.51 756.21 474.03 755.77 460.89 775.1 462.59 794.1 462.59 796.3 466.16 795.88 473.51" style="fill:#006ca6"/><polygon points="798.82 462.59 796.3 466.16 794.1 462.59 775.1 462.59 768.07 462.59 755.77 460.89 770.09 460 769.96 460.91 798.82 462.59" style="fill:#009cff"/><path d="M765.85,573l17.45-.43,2.84-1.21.91-14.5,7.64-2.14-.26-10.9s.18-20.56-17.53-21.74S765.85,573,765.85,573Z" style="fill:#0a0b48"/><path d="M781.35,572.57l.63-16.44,8.35-1.58L790,542.84s-1.77-21-16.81-20.72-17.37,18-18,29.15l7.69,4.75.3,17,2.64-.06.22-5.17,2,5.12,8-.2,1.68-11.18.61,11.12Z" style="fill:#00669c"/><path d="M766.82,537.09s-2.59,1.21-2.36,10.57l-4.15.62s-2.23-6.72-.23-9.53S762,534.45,766.82,537.09Z" style="fill:#090f50"/><path d="M764.46,547.66a8.5,8.5,0,0,0,2.36-10.57S764.23,538.42,764.46,547.66Z" style="fill:#00529f"/><path d="M766.31,552.72l5.25-.12,3.32-5.2s-1.46-4.5-4.39-1.44A20.64,20.64,0,0,0,766.31,552.72Z" style="fill:#0b0954"/><path d="M771.56,552.6l3.44-.09s2.64-.28-.12-5.11Z" style="fill:#00519a"/><path d="M785.22,547.67s1-4.39-1-10.77l-5.88,3.7.53,3.09Z" style="fill:#004ca7"/><path d="M746.59,541.15l12.31-27.5-9.32-2.48s-10.47,10.52-10.83,24.08Z" style="fill:#0f0440"/><path d="M746.59,541.15s17.1-25,37.36-27.09c0,0,16.31.28,23.45,20.09,0,0-3.62-26-31.19-28.75C776.21,505.4,756.73,500.47,746.59,541.15Z" style="fill:#002c71"/><path d="M785.26,549.16l-3,.07s-2.53-.34-5.78-6.2,5.44-7.77,5.44-7.77,3.92.45,2.34,1.64-3.89,2.62-3.89,2.62-1.16,2.21,1.19,4.45,3.65,3.7,3.65,3.7Z" style="fill:#0d0e4c"/><path d="M807.75,548.61l9.6-6.58s-2.17-53.55-42.84-57.84S726,546,726,546L723,593.86,733.47,592l4-29.84,1.3-26.91s4.68-34,32.77-33.76S811,536.24,807.75,548.61Z" style="fill:#006ca6"/><polygon points="735.99 591.71 744.3 593.34 746.59 541.15 738.75 535.25 735.99 591.71" style="fill:#0f0b47"/><polygon points="735.99 591.71 737.45 562.16 733.11 592 735.99 591.71" style="fill:#0052b7"/><polygon points="766.36 518.5 761.06 511.31 751.84 508.88 746.14 503.95 749.58 511.17 758.9 513.65 766.36 518.5" style="fill:#17193d"/><polygon points="758.9 513.65 749.58 511.17 749.14 510.24 758.9 513.65" style="fill:#002c71"/><path d="M742.92,499.55s1.43-1.91,2.82-3.48,2.82-2.93,2.82-2.93l-2.36,4Z" style="fill:#09f"/><path d="M757.89,486.75s4.84-3.39,14.3-2.73c10.63.74,13.63,2.93,13.89,3s-14.62-1.92-14.62-1.92l-.81,2.17-14.23.18Z" style="fill:#09f"/><path d="M797.68,494.4l6.1,13.77,4.73.7A48.17,48.17,0,0,0,797.68,494.4Z" style="fill:#09f"/><polygon points="811.97 516.81 811.41 519.7 814.31 524.07 814.22 520.41 811.97 516.81" style="fill:#09f"/><polygon points="806.23 563.37 780.32 585.2 743.56 596.6 744.58 638.52 805.13 656.08 807.3 638.97 806.23 563.37" style="fill:#004693"/><polygon points="811.85 655.92 804.56 632.67 805.13 656.08 811.85 655.92" style="fill:#00225d"/><path d="M819.76,655.72l-7.91.2-4.77-15.22-.85-77.33,3.29-2.66,6.91-13.61,1.72,42.34s-.09,31.53-3,39l3.16,16.63Z" style="fill:#005294"/><polygon points="823.72 634.27 818.28 584.27 815.14 628.45 819.53 635.4 823.72 634.27" style="fill:#0f0910"/><polygon points="818.3 645.08 819.76 655.73 839.05 655.25 833.02 549.63 816.42 547.1 818.3 645.08" style="fill:#0b0846"/><polygon points="833.02 549.63 830.3 544.01 826.13 545.83 816.42 547.1 833.02 549.63" style="fill:#001a71"/><polygon points="806.23 563.37 807.3 638.97 742.46 622.12 743.56 596.6 780.32 585.2 806.23 563.37" style="fill:none"/><polygon points="806.23 563.37 780.32 585.2 743.56 596.6 743.51 594.71 759.57 591.41 779.02 581.61 806.23 563.37" style="fill:#005fd0"/><polygon points="761.92 590.23 783.57 577.19 807.5 558.95 807.76 548.35 816.3 542.05 832.95 541.01 830.3 544.01 826.13 545.83 816.42 547.1 809.52 560.71 806.23 563.37 779.02 581.61 761.92 590.23" style="fill:#000d3d"/><polygon points="759.28 591.19 744.51 593.1 735.93 591.27 722.95 593.86 723.39 599.68 735.55 593.18 743.54 595.74 759.28 591.19" style="fill:#000d3d"/><polygon points="735.55 593.18 734.3 654.88 717.86 655.28 718.28 601.87 735.55 593.18" style="fill:#004792"/><polygon points="735.55 593.18 735.58 594.4 718.28 602.63 718.25 601.08 735.55 593.18" style="fill:#005d86"/><polygon points="823.72 634.27 818.3 645.08 815.14 628.45 819.53 635.4 823.72 634.27" style="fill:#004e92"/><polygon points="849.19 652.84 715.92 653.53 814.83 685.03 849.19 652.84" style="fill:#0090cf"/><polygon points="808.96 656.24 814.83 685.03 698.45 687.88 704.48 652.58 755.92 656.84 808.96 656.24" style="fill:#004f95"/><ellipse cx="768.09" cy="682.01" rx="19.32" ry="37.74" transform="translate(-109.21 1216.28) rotate(-72.94)" style="fill:#025593"/><polygon points="658.24 762.59 660.13 769.43 534.81 774.61 540.47 765.46 659.89 759.76 658.24 762.59" style="fill:#005290"/><polygon points="660.13 769.43 645.32 798.04 910.08 790.95 895.27 769.21 660.13 769.43" style="fill:#001448"/><path d="M513.69,792.87l131.63,5.18,26.81-16.85-12,2.36,10.09-9.9-10.58,4.05.49-8.28-78.51,1.92,10.18-3-23.68.58S532,764.52,513.69,792.87Z" style="fill:#003a71"/><polygon points="892.19 758.18 742.51 757.09 742.82 769.76 895.27 769.21 892.19 758.18" style="fill:#0b0036"/><polygon points="887.83 748.72 754.21 751.97 742.51 757.09 892.19 758.18 887.83 748.72" style="fill:#003b7e"/><polygon points="658.87 717.78 662.51 754.21 887.83 748.72 893.91 713.42 658.87 717.78" style="fill:#100a53"/><ellipse cx="724.45" cy="739.44" rx="37.74" ry="19.32" transform="translate(-300.53 594.46) rotate(-37.54)" style="fill:#0b094f"/><ellipse cx="819.22" cy="730.92" rx="28.7" ry="11.66" transform="translate(-174.48 264.1) rotate(-16.58)" style="fill:#0b094f"/><polygon points="734.6 757.28 659.89 759.76 658.24 762.59 660.13 769.43 734.9 769.73 734.6 757.28" style="fill:#000329"/><polygon points="658.87 717.78 662.51 754.21 550.26 756.95 545.58 720.55 658.87 717.78" style="fill:#005d9d"/><ellipse cx="607.18" cy="730.56" rx="16.46" ry="32.16" transform="translate(-334.23 603.55) rotate(-42.59)" style="fill:#026196"/><polygon points="898.21 705.44 769.56 707.1 658.66 709.17 540.76 706.54 545.58 720.55 895.25 713.88 898.21 705.44" style="fill:#0b043c"/><polygon points="773.97 704.98 769.89 707.25 657.47 709.99 540.76 706.54 773.97 704.98" style="fill:#00669f"/><polygon points="653.74 705.78 656.65 697.51 894.63 698.53 898.21 705.44 769.89 707.25 653.74 705.78" style="fill:#110952"/><polygon points="740.08 699.58 733.15 698.07 730.42 685.03 737.57 681.41 799.63 683.34 740.08 699.58" style="fill:#0091d6"/><polygon points="656.65 697.51 545.13 701.95 540.76 706.54 653.74 705.78 656.65 697.51" style="fill:#003d81"/><polygon points="822.35 698.83 819.18 684.93 818.05 682.89 739.72 684.8 740.08 699.58 822.35 698.83" style="fill:#004489"/><polygon points="788.96 683.01 769.89 678.9 754.67 668.59 764.94 680.74 788.96 683.01" style="fill:#01002b"/><polygon points="814.79 683.26 811.96 656.68 849.19 652.84 851.52 662.78 852.41 698.93 822.38 698.71 814.79 683.26" style="fill:#0e0337"/><polygon points="687.1 697.73 689.44 686.03 730.42 685.03 733.15 698.07 687.1 697.73" style="fill:#00619f"/><polygon points="659.89 759.76 662.51 754.21 660.72 736.45 658.03 754.32 550.26 756.95 540.47 765.46 659.89 759.76" style="fill:#0091d4"/><polygon points="742.82 769.76 742.51 757.09 754.11 752.32 756.01 745.39 734.6 757.28 734.9 769.73 742.82 769.76" style="fill:#00010e"/><polygon points="662.51 754.21 659.89 759.76 734.6 757.28 743.7 752.22 662.51 754.21" style="fill:#005894"/><polygon points="817.54 680.8 821.68 697.58 814.14 682.64 817.54 680.8" style="fill:#008ed5"/><polygon points="892.66 720.79 659.72 726.32 658.87 717.78 895.25 713.88 892.66 720.79" style="fill:#0b094f"/><polygon points="659.72 726.32 545.58 720.55 658.87 717.78 659.72 726.32" style="fill:#003a71"/><polygon points="805.91 654.98 804.93 614.81 799.96 618.14 800.86 655.1 805.91 654.98" style="fill:#040330"/><path d="M800,618.14s-5.89-6-62.12-4l-.53,34.46,14.11,4.25,49.44,2.24Z" style="fill:#006ba7"/><polygon points="751.42 652.86 736.27 653.23 737.31 648.61 751.42 652.86" style="fill:#003b7a"/><path d="M804.93,614.81l-5,3.33s-10-5.95-62.12-4l3.39-2.38S772.83,607.55,804.93,614.81Z" style="fill:#0096d7"/><polygon points="800.76 651.07 747.04 651.55 735.54 653.38 759.43 653.46 800.86 655.1 800.76 651.07" style="fill:#046b99"/><polygon points="848.9 779.16 856.42 787.88 861.17 783.31 868.3 792.07 889.04 791.44 860.58 778.87 856.26 781.43 848.9 779.16" style="fill:#0b0036"/><path d="M754.09,641.25c.32-1.23.6-2.39.83-3.49s.43-2.13.57-3.11.29-2.21.37-3.25.13-2,.17-2.95V628a4.77,4.77,0,0,0,1.24-.3,8.36,8.36,0,0,0,1.39-.68c-.33,1.18-.6,2.25-.82,3.24s-.39,1.87-.51,2.68l-.06.4c0,.12,0,.26,0,.4s0,.32-.05.51,0,.43-.08.72l.17.11a5,5,0,0,0,2.1.64,3.8,3.8,0,0,0,1.3-.2,4.27,4.27,0,0,0,1.18-.61,3.85,3.85,0,0,0,1-1,5.27,5.27,0,0,0,.62-1.38q.12-.43.21-.81c.06-.26.11-.5.14-.72a6,6,0,0,0,.07-1.19,6.5,6.5,0,0,0-.12-1.1,6.06,6.06,0,0,0-.27-1,5.18,5.18,0,0,0-.36-.78,2.56,2.56,0,0,0-.49-.58,3.3,3.3,0,0,0-.72-.51,4.43,4.43,0,0,0-.91-.36,4.78,4.78,0,0,0-1.1-.17,4.32,4.32,0,0,0-1.1.11,6.63,6.63,0,0,0-1.2.38,10.57,10.57,0,0,0-1.26.63,11.88,11.88,0,0,0-1.26.87l1.12-3.15,1.24-.52a4.41,4.41,0,0,1,.46-.19c.62-.17,1.14-.3,1.56-.37a4.84,4.84,0,0,1,1-.1,4.22,4.22,0,0,1,1,.18,5.71,5.71,0,0,1,1.13.48,5.89,5.89,0,0,1,1.09.75,5.41,5.41,0,0,1,.91,1,6.08,6.08,0,0,1,.56,1.08,8.28,8.28,0,0,1,.37,1.28,8,8,0,0,1,.15,1.41,7.26,7.26,0,0,1-.09,1.47,12.13,12.13,0,0,1-.29,1.3,8.63,8.63,0,0,1-.51,1.29,6.91,6.91,0,0,1-.81,1.29,7.07,7.07,0,0,1-1.2,1.18,1.61,1.61,0,0,1-.29.21h0a25.83,25.83,0,0,0,.8,2.55,15.26,15.26,0,0,0,1,2.06,4.79,4.79,0,0,0-1.23.3,8,8,0,0,0-1.39.68,36.21,36.21,0,0,0-.72-4.91l-.23,0-.31,0-.39,0h-.4a6.6,6.6,0,0,1-1.26-.18,10.71,10.71,0,0,1-1.21-.4l-.14,0-.24,2.58a7.14,7.14,0,0,0,0,1.23l0,.28a5.29,5.29,0,0,0-.86.15,3.83,3.83,0,0,0-.72.27,4.61,4.61,0,0,0-.59.31Z" style="fill:#0096d7"/><path d="M766.63,641.76a75.61,75.61,0,0,0,1.62-8.12c.06-.45.12-.88.18-1.31q.71-5.31.74-7.38v-.42a6.12,6.12,0,0,0,2.55-.93l.07-.05a70.62,70.62,0,0,0-1.67,8.32l-.06.43a58.48,58.48,0,0,0-.82,8v.44A4.79,4.79,0,0,0,768,641,6.17,6.17,0,0,0,766.63,641.76Z" style="fill:#0096d7"/><path d="M772.51,642c.33-1.23.61-2.4.84-3.49s.42-2.14.57-3.11c.16-1.13.29-2.22.36-3.25s.14-2,.18-2.95v-.41a4.77,4.77,0,0,0,1.24-.3,8.72,8.72,0,0,0,1.38-.68c-.32,1.17-.59,2.25-.81,3.23s-.39,1.88-.51,2.69l-.06.4a4,4,0,0,0-.05.4c0,.14,0,.31-.06.51s0,.43-.07.71l.17.12a5,5,0,0,0,2.1.64,3.79,3.79,0,0,0,1.3-.18,4.09,4.09,0,0,0,2.12-1.64,5.46,5.46,0,0,0,.64-1.38c.08-.29.15-.56.21-.82a7,7,0,0,0,.14-.72,6.73,6.73,0,0,0,.07-1.18,9,9,0,0,0-.12-1.1,6.51,6.51,0,0,0-.27-1,5,5,0,0,0-.36-.77,2.61,2.61,0,0,0-.49-.58,3.87,3.87,0,0,0-.72-.51,4.68,4.68,0,0,0-.91-.37,4.79,4.79,0,0,0-1.11-.16,3.84,3.84,0,0,0-1.09.11,6.63,6.63,0,0,0-1.2.38,10.57,10.57,0,0,0-1.26.63,11.24,11.24,0,0,0-1.26.86L774.6,625l1.24-.52.46-.19c.61-.17,1.13-.29,1.56-.37a5.35,5.35,0,0,1,1-.09,4.22,4.22,0,0,1,1,.18,6.31,6.31,0,0,1,1.13.47,7,7,0,0,1,1.08.75,5.14,5.14,0,0,1,.91,1,5.49,5.49,0,0,1,.56,1.08,7.07,7.07,0,0,1,.37,1.28,7.15,7.15,0,0,1,.16,1.4,9.18,9.18,0,0,1-.1,1.54,9.3,9.3,0,0,1-.3,1.25,11.87,11.87,0,0,1-.55,1.37,6.28,6.28,0,0,1-.83,1.31,6.56,6.56,0,0,1-1.14,1.09,4.92,4.92,0,0,1-1.44.75,4.84,4.84,0,0,1-1.78.23,6.38,6.38,0,0,1-1.25-.18,9,9,0,0,1-1.21-.39l-.14-.05q-.17,1.64-.24,2.58a7.7,7.7,0,0,0,0,1.24l0,.28a5.29,5.29,0,0,0-.86.15,4.21,4.21,0,0,0-.71.25,4.61,4.61,0,0,0-.59.31C772.81,641.8,772.65,641.91,772.51,642Z" style="fill:#0096d7"/><path d="M753.86,640.89c.32-1.23.6-2.39.84-3.49s.42-2.13.56-3.11.29-2.21.37-3.24.13-2,.17-2.95v-.42a5.21,5.21,0,0,0,1.23-.29,9.76,9.76,0,0,0,1.39-.68c-.33,1.17-.6,2.25-.82,3.23s-.39,1.88-.51,2.69l-.06.4c0,.12,0,.25,0,.4s0,.31,0,.51-.05.43-.08.71l.17.12a5,5,0,0,0,2.1.63,3.76,3.76,0,0,0,1.3-.19,4.36,4.36,0,0,0,1.19-.62,4,4,0,0,0,1-1,5.13,5.13,0,0,0,.62-1.38c.09-.28.16-.56.22-.81s.1-.49.14-.72a5.91,5.91,0,0,0,.06-1.18,6.51,6.51,0,0,0-.12-1.11,6.08,6.08,0,0,0-.26-1,7.14,7.14,0,0,0-.37-.78,2.56,2.56,0,0,0-.49-.58,3.88,3.88,0,0,0-.71-.5,4.77,4.77,0,0,0-.92-.37,5.28,5.28,0,0,0-1.1-.17,4.74,4.74,0,0,0-1.09.11,8.05,8.05,0,0,0-1.21.39,9.76,9.76,0,0,0-1.25.63,10.92,10.92,0,0,0-1.27.86l1.13-3.15,1.23-.52.46-.19c.62-.17,1.14-.29,1.56-.37a5.59,5.59,0,0,1,1-.1,4.63,4.63,0,0,1,1,.19,5.42,5.42,0,0,1,1.13.47,7.05,7.05,0,0,1,1.09.75,5.14,5.14,0,0,1,.91,1,5.76,5.76,0,0,1,.56,1.08,7.2,7.2,0,0,1,.37,1.27,8.31,8.31,0,0,1,.07,2.88,9.78,9.78,0,0,1-.3,1.3,9.19,9.19,0,0,1-.51,1.3,7.18,7.18,0,0,1-.81,1.28,7.44,7.44,0,0,1-1.19,1.19l-.3.21h0a24.88,24.88,0,0,0,.8,2.55,14,14,0,0,0,.95,2.05,4.77,4.77,0,0,0-1.24.3,10.3,10.3,0,0,0-1.39.68,36,36,0,0,0-.72-4.9l-.23,0-.31,0-.39,0h-.4a6.6,6.6,0,0,1-1.26-.18,8.44,8.44,0,0,1-1.2-.4l-.14,0c-.11,1.08-.19,2-.25,2.58a7.27,7.27,0,0,0,0,1.24l0,.28a5.42,5.42,0,0,0-.87.15,3.82,3.82,0,0,0-.72.26c-.22.1-.41.21-.59.31Z" style="fill:#0e0943"/><path d="M766.4,641.41a73.44,73.44,0,0,0,1.62-8.13c.07-.44.13-.88.18-1.31q.7-5.31.74-7.38v-.41a6.29,6.29,0,0,0,2.55-.94l.07,0a71.84,71.84,0,0,0-1.67,8.32l-.06.42a60.19,60.19,0,0,0-.82,8l0,.44a5.2,5.2,0,0,0-1.25.29A5.76,5.76,0,0,0,766.4,641.41Z" style="fill:#0e0943"/><path d="M772.28,641.65c.33-1.23.61-2.39.84-3.49s.43-2.13.57-3.11.29-2.21.37-3.25.13-2,.17-2.95v-.41a4.77,4.77,0,0,0,1.24-.3,7.94,7.94,0,0,0,1.38-.68c-.32,1.18-.59,2.25-.81,3.24s-.39,1.87-.51,2.68l-.06.4c0,.12,0,.26-.05.4s0,.32,0,.51,0,.43-.08.72l.17.11a5,5,0,0,0,2.1.64,3.56,3.56,0,0,0,1.3-.18,3.87,3.87,0,0,0,2.12-1.64,4.87,4.87,0,0,0,.64-1.38q.12-.44.21-.81c.06-.26.11-.5.14-.72a6,6,0,0,0,.07-1.19,7.71,7.71,0,0,0-.12-1.1,6.06,6.06,0,0,0-.27-1,5.18,5.18,0,0,0-.36-.78,2.85,2.85,0,0,0-.49-.58,3.18,3.18,0,0,0-.72-.5,4.13,4.13,0,0,0-.91-.37,4.78,4.78,0,0,0-1.1-.17,4.32,4.32,0,0,0-1.1.11,6.63,6.63,0,0,0-1.2.38,10.57,10.57,0,0,0-1.26.63,10.94,10.94,0,0,0-1.26.87l1.12-3.15,1.24-.52a4.41,4.41,0,0,1,.46-.19c.62-.17,1.14-.3,1.56-.37a4.79,4.79,0,0,1,1-.1,4.22,4.22,0,0,1,1,.18,5.71,5.71,0,0,1,1.13.48,5.89,5.89,0,0,1,1.09.75,4.81,4.81,0,0,1,1.46,2.08,7.32,7.32,0,0,1,.38,1.28,8.63,8.63,0,0,1,0,2.94,9,9,0,0,1-.3,1.25,11.77,11.77,0,0,1-.54,1.37,6.33,6.33,0,0,1-.84,1.31,6.21,6.21,0,0,1-1.14,1.09,5,5,0,0,1-1.43.75,4.86,4.86,0,0,1-1.78.24,6.6,6.6,0,0,1-1.26-.18,10.71,10.71,0,0,1-1.21-.4l-.14,0q-.17,1.62-.24,2.58a7.15,7.15,0,0,0,0,1.23l0,.28a5.29,5.29,0,0,0-.86.15,5.88,5.88,0,0,0-.71.25,5.39,5.39,0,0,0-.59.31Z" style="fill:#0e0943"/><circle cx="499.44" cy="500.29" r="500.29" style="fill:#004693"/><path d="M544.19,29.09c-276.31,0-500.29,224-500.29,500.29S207.47,980.45,483.77,980.45,978.71,805.69,978.71,529.38,820.49,29.09,544.19,29.09Zm0,908.22c-225.29,0-407.93-182.64-407.93-407.93S318.9,121.46,544.19,121.46,952.12,304.09,952.12,529.38,769.48,937.31,544.19,937.31Z" style="fill:#002c71"/><path d="M499.44,0C223.13,0-.86,224-.86,500.29s224,500.3,500.3,500.3,500.29-224,500.29-500.3S775.74,0,499.44,0Zm0,908.22c-225.3,0-407.93-182.63-407.93-407.93S274.14,92.37,499.44,92.37,907.36,275,907.36,500.29,724.73,908.22,499.44,908.22Z" style="fill:#006ca6"/><path d="M411.47,751.25l178.3-4.35,29-12.45,9.3-148.11,78.1-21.86L703.5,453s1.91-210.16-179.14-222.17S411.47,751.25,411.47,751.25Z" style="fill:#0a0b48"/><path d="M569.83,747.39l6.46-168,85.29-16.16-2.92-119.65S640.52,229.22,486.82,231.8s-177.44,183.91-184,297.92l78.65,48.55,3.06,173.64,27-.66,2.23-52.87,20.06,52.33,82.11-2L533,634.43l6.29,113.7Z" style="fill:#00669c"/><path d="M421.31,384.81s-26.43,12.36-24.07,108l-42.39,6.32s-22.81-68.7-2.38-97.37S372.53,357.83,421.31,384.81Z" style="fill:#090f50"/><path d="M397.24,492.79s55.08-39.49,24.07-108C421.31,384.81,394.91,398.34,397.24,492.79Z" style="fill:#00529f"/><path d="M416.1,544.56l53.68-1.31,33.91-53.06s-14.92-46-44.81-14.75S416.1,544.56,416.1,544.56Z" style="fill:#0b0954"/><path d="M469.78,543.25l35.19-.86s26.92-2.92-1.28-52.2Z" style="fill:#00519a"/><path d="M609.4,492.89S620,448,599.67,382.8l-60.11,37.85L545,452.21Z" style="fill:#004ca7"/><path d="M609.77,508.14l-30.5.75s-25.91-3.55-59.06-63.45,55.57-79.38,55.57-79.38,40,4.61,23.89,16.74-39.73,26.79-39.73,26.79-11.89,22.59,12.15,45.48,37.31,37.82,37.31,37.82Z" style="fill:#0d0e4c"/><polygon points="767.03 923.08 709.3 850.39 719.8 827.74 717.93 770.3 751.06 746.03 751.06 637.63 802.95 597.99 857.26 593.58 901.78 570.95 996.47 545.23 994.43 573.33 899.84 590.71 861.63 602.84 846.08 627.92 828.58 623.88 796.7 641.67 769.81 646.53 777.32 691.83 766.06 712.05 763.56 771.92 737.93 783.25 731.68 819.65 734.81 831.78 767.03 923.08" style="fill:#0a0b48"/><polygon points="994.75 568.91 896.09 588.02 857.48 603.87 846.08 627.92 862.36 606.31 896.5 592.08 993.22 578.27 994.75 568.91" style="fill:#09f"/><polygon points="55.61 269.19 163.25 269.19 192.45 322.67 272.45 322.67 209.63 295.93 193.35 230.67 55.61 269.19" style="fill:#09f"/><polygon points="60.09 264.71 167.72 264.71 196.93 318.2 272.45 322.67 214.1 291.46 197.82 226.2 60.09 264.71" style="fill:#090f50"/><polygon points="841.02 136.7 872.23 166.4 822.73 180.59 828.83 158.65 781.28 172.06 786.16 153.77 841.02 136.7" style="fill:#09f"/><polygon points="838.78 134.46 869.99 164.16 820.5 178.36 826.59 156.41 779.04 169.82 783.92 151.53 838.78 134.46" style="fill:#090f50"/></svg>