<svg xmlns="http://www.w3.org/2000/svg" viewBox="0 0 1001 1001"><circle cx="500.3" cy="500.3" r="500.3" fill="#004693"/><path fill="#002c71" d="M545 29C269 29 45 253 45 529s163 451 440 451 495-174 495-451S821 29 545 29Zm0 908a408 408 0 1 1 0-816 408 408 0 0 1 0 816Z"/><path fill="#006ca6" d="M500 0a500 500 0 1 0 0 1001A500 500 0 0 0 500 0Zm0 908a408 408 0 1 1 0-816 408 408 0 0 1 0 816Z"/><path fill="#0a0b48" d="m412 751 179-4 29-13 9-148 78-22-3-111s2-210-179-222-113 520-113 520Z"/><path fill="#00669c" d="m571 747 6-168 85-16-2-119s-19-215-172-212-178 184-184 298l78 48 3 174 27-1 3-53 20 53 82-2 17-115 6 114Z"/><path fill="#090f50" d="M422 385s-26 12-24 108l-42 6s-23-69-3-97 20-44 69-17Z"/><path fill="#00529f" d="M398 493s55-40 24-108c0 0-26 13-24 108Z"/><path fill="#0b0954" d="m417 545 54-2 34-53s-15-46-45-15-43 70-43 70Z"/><path fill="#00519a" d="m471 543 35-1s27-3-1-52Z"/><path fill="#004ca7" d="M610 493s11-45-9-110l-61 38 6 31Z"/><path fill="#0d0e4c" d="m611 508-31 1s-26-4-59-64 56-79 56-79 40 5 24 17l-40 27s-12 22 12 45l37 38Z"/><path fill="#0a0b48" d="m768 923-58-73 11-22-2-58 33-24V638l52-40 54-4 45-23 94-26-2 28-94 18-39 12-15 25-18-4-31 18-27 5 7 45-11 20-3 60-25 11-6 37 3 12 32 91z"/><path fill="#09f" d="m996 569-99 19-39 16-11 24 16-22 34-14 97-14 2-9zM56 269h108l29 54h80l-63-27-16-65-138 38z"/><path fill="#090f50" d="M61 265h108l29 53 75 5-58-32-16-65-138 39z"/><path fill="#09f" d="m842 137 31 29-49 15 6-22-48 13 5-18 55-17z"/><path fill="#090f50" d="m840 134 31 30-50 14 6-22-47 14 5-18 55-18z"/></svg>